<svg width="140" height="30" viewBox="0 0 140 30" version="1.1" xmlns="http://www.w3.org/2000/svg" xmlns:xlink="http://www.w3.org/1999/xlink">
<title>ethfiddle</title>
<desc>Created using Figma</desc>
<g id="Canvas" transform="translate(131 257)">
<g id="ethfiddle">
<g id="Rectangle">
<use xlink:href="#path0_fill" transform="translate(-131 -257)" fill="#333333"/>
</g>
<g id="Group">
<g id="ethfiddle">
<g id="Vector">
<use xlink:href="#path1_fill" transform="translate(-123.998 -251)" fill="#4BC0C8"/>
</g>
<g id="Vector">
<use xlink:href="#path2_fill" transform="translate(-124 -245.818)" fill="#02819B"/>
</g>
<g id="Vector">
<use xlink:href="#path3_fill" transform="translate(-112.902 -250.991)" fill="#02819B"/>
</g>
<g id="Vector">
<use xlink:href="#path4_fill" transform="matrix(0.819352 -0.57329 0.57329 0.819352 -121.704 -241.973)" fill="#02819B"/>
</g>
<g id="Vector">
<use xlink:href="#path5_fill" transform="translate(-109.435 -243.442)" fill="#02819B"/>
</g>
</g>
</g>
<g id="Run on EthFiddle">
<use xlink:href="#path6_fill" transform="translate(-96 -250)" fill="#FFFFFF"/>
</g>
</g>
</g>
<defs>
<path id="path0_fill" d="M 0 4C 0 1.79086 1.79086 0 4 0L 136 0C 138.209 0 140 1.79086 140 4L 140 26C 140 28.2091 138.209 30 136 30L 4 30C 1.79086 30 0 28.2091 0 26L 0 4Z"/>
<path id="path1_fill" d="M 15.1774 17.7078L 1.50928 8.11313C 1.04317 7.78661 0.662633 7.35255 0.399904 6.84772C 0.137175 6.3429 -4.84975e-11 5.78218 -4.84974e-11 5.21308C -4.84979e-11 4.64398 0.137175 4.08327 0.399904 3.57844C 0.662633 3.07361 1.04317 2.63955 1.50928 2.31304L 4.82005 1.49046e-09L 18.4882 9.59597C 18.9541 9.92267 19.3344 10.3568 19.5969 10.8616C 19.8595 11.3664 19.9966 11.927 19.9966 12.496C 19.9966 13.065 19.8595 13.6256 19.5969 14.1304C 19.3344 14.6352 18.9541 15.0694 18.4882 15.3961L 15.1774 17.7078ZM 4.8188 1.54286L 2.2382 3.34828C 1.93822 3.55819 1.69328 3.83735 1.52417 4.16209C 1.35505 4.48684 1.26675 4.84757 1.26675 5.21371C 1.26675 5.57984 1.35505 5.94058 1.52417 6.26532C 1.69328 6.59006 1.93822 6.86922 2.2382 7.07914L 15.1812 16.165L 17.7618 14.3608C 18.0615 14.1507 18.3062 13.8715 18.4752 13.5468C 18.6441 13.2221 18.7323 12.8614 18.7323 12.4954C 18.7323 12.1294 18.6441 11.7687 18.4752 11.444C 18.3062 11.1193 18.0615 10.8401 17.7618 10.63L 4.8188 1.54286Z"/>
<path id="path2_fill" d="M 4.80755 10.9738L 2.2307 9.16462C 1.93096 8.95453 1.68626 8.6753 1.51732 8.35059C 1.34838 8.02587 1.26018 7.66523 1.26018 7.29919C 1.26018 6.93315 1.34838 6.57251 1.51732 6.24779C 1.68626 5.92308 1.93096 5.64385 2.2307 5.43376L 8.901 0.770178L 7.80074 0L 1.50928 4.39852C 1.04317 4.72504 0.662633 5.1591 0.399904 5.66392C 0.137175 6.16875 -2.05488e-11 6.72946 -2.05487e-11 7.29857C -2.05491e-11 7.86767 0.137175 8.42838 0.399904 8.93321C 0.662633 9.43803 1.04317 9.87209 1.50928 10.1986L 4.8113 12.5166L 8.896 9.65849L 7.79574 8.88581L 4.80755 10.9738Z"/>
<path id="path3_fill" d="M 7.39796 2.31804L 4.0947 5.96184e-10L 0.00625168 2.86066L 1.10651 3.63334L 4.09345 1.54786L 6.67155 3.35703C 6.97128 3.56712 7.21598 3.84634 7.38492 4.17106C 7.55386 4.49578 7.64207 4.85642 7.64207 5.22246C 7.64207 5.58849 7.55386 5.94914 7.38492 6.27386C 7.21598 6.59857 6.97128 6.8778 6.67155 7.08789L -1.52623e-07 11.7477L 1.10026 12.5204L 7.39296 8.11813C 7.85907 7.79161 8.23961 7.35755 8.50234 6.85273C 8.76507 6.3479 8.90225 5.78718 8.90225 5.21808C 8.90225 4.64898 8.76507 4.08827 8.50234 3.58344C 8.23961 3.07862 7.85907 2.64456 7.39296 2.31804L 7.39796 2.31804Z"/>
<path id="path4_fill" d="M 6.34397 0L 0 0L 0 1.26404L 6.34397 1.26404L 6.34397 0Z"/>
<path id="path5_fill" d="M 2.53184 0L 2.67091e-07 1.77291L 0.723918 2.80815L 3.34953 0.968974C 3.07446 0.651401 2.80315 0.326326 2.53184 0Z"/>
<path id="path6_fill" d="M 4.24658 8.6167L 2.72949 8.6167L 2.72949 12L 0.825195 12L 0.825195 2.75781L 4.25928 2.75781C 5.35107 2.75781 6.1932 3.00114 6.78564 3.48779C 7.37809 3.97445 7.67432 4.66211 7.67432 5.55078C 7.67432 6.18132 7.53678 6.70817 7.26172 7.13135C 6.99089 7.55029 6.57829 7.8846 6.02393 8.13428L 8.02344 11.9111L 8.02344 12L 5.97949 12L 4.24658 8.6167ZM 2.72949 7.07422L 4.26562 7.07422C 4.74382 7.07422 5.1141 6.95361 5.37646 6.7124C 5.63883 6.46696 5.77002 6.13053 5.77002 5.70312C 5.77002 5.26725 5.64518 4.92448 5.39551 4.6748C 5.15007 4.42513 4.77132 4.30029 4.25928 4.30029L 2.72949 4.30029L 2.72949 7.07422ZM 13.1206 11.3018C 12.6678 11.8519 12.0415 12.127 11.2417 12.127C 10.5054 12.127 9.94255 11.9154 9.55322 11.4922C 9.16813 11.069 8.97135 10.4491 8.96289 9.63232L 8.96289 5.13184L 10.7974 5.13184L 10.7974 9.56885C 10.7974 10.284 11.1232 10.6416 11.7749 10.6416C 12.397 10.6416 12.8244 10.4258 13.0571 9.99414L 13.0571 5.13184L 14.8979 5.13184L 14.8979 12L 13.1714 12L 13.1206 11.3018ZM 17.9702 5.13184L 18.0273 5.92529C 18.5182 5.31169 19.1763 5.00488 20.0015 5.00488C 20.7293 5.00488 21.271 5.21859 21.6265 5.646C 21.9819 6.0734 22.1639 6.7124 22.1724 7.56299L 22.1724 12L 20.3379 12L 20.3379 7.60742C 20.3379 7.2181 20.2533 6.93669 20.084 6.76318C 19.9147 6.58545 19.6333 6.49658 19.2397 6.49658C 18.7235 6.49658 18.3363 6.71663 18.0781 7.15674L 18.0781 12L 16.2437 12L 16.2437 5.13184L 17.9702 5.13184ZM 26.6665 8.50244C 26.6665 7.82959 26.7977 7.22445 27.0601 6.68701C 27.3267 6.14958 27.6948 5.73486 28.1646 5.44287C 28.6385 5.15088 29.1781 5.00488 29.7832 5.00488C 30.7184 5.00488 31.4738 5.32861 32.0493 5.97607C 32.6291 6.62354 32.9189 7.4847 32.9189 8.55957L 32.9189 8.64209C 32.9189 9.31071 32.7899 9.91162 32.5317 10.4448C 32.2778 10.9738 31.9118 11.3864 31.4336 11.6826C 30.9596 11.9788 30.4137 12.127 29.7959 12.127C 28.8649 12.127 28.1095 11.8032 27.5298 11.1558C 26.9543 10.5083 26.6665 9.65137 26.6665 8.58496L 26.6665 8.50244ZM 27.8472 8.64209C 27.8472 9.40381 28.0228 10.0153 28.374 10.4766C 28.7295 10.9378 29.2035 11.1685 29.7959 11.1685C 30.3926 11.1685 30.8665 10.9357 31.2178 10.4702C 31.569 10.0005 31.7446 9.34456 31.7446 8.50244C 31.7446 7.74919 31.5648 7.13981 31.2051 6.67432C 30.8496 6.20459 30.3757 5.96973 29.7832 5.96973C 29.2035 5.96973 28.7358 6.20036 28.3804 6.66162C 28.0249 7.12288 27.8472 7.78304 27.8472 8.64209ZM 35.5024 5.13184L 35.5405 5.99512C 36.0653 5.33496 36.7508 5.00488 37.5972 5.00488C 39.0487 5.00488 39.7808 5.82373 39.7935 7.46143L 39.7935 12L 38.6191 12L 38.6191 7.45508C 38.6149 6.95996 38.5007 6.59391 38.2764 6.35693C 38.0563 6.11995 37.7114 6.00146 37.2417 6.00146C 36.8608 6.00146 36.5265 6.10303 36.2388 6.30615C 35.951 6.50928 35.7267 6.77588 35.5659 7.10596L 35.5659 12L 34.3916 12L 34.3916 5.13184L 35.5024 5.13184ZM 50.2861 7.99463L 46.6299 7.99463L 46.6299 10.4702L 50.9209 10.4702L 50.9209 12L 44.7256 12L 44.7256 2.75781L 50.9082 2.75781L 50.9082 4.30029L 46.6299 4.30029L 46.6299 6.50293L 50.2861 6.50293L 50.2861 7.99463ZM 54.1138 3.44336L 54.1138 5.13184L 55.2881 5.13184L 55.2881 6.47754L 54.1138 6.47754L 54.1138 9.90527C 54.1138 10.1592 54.1624 10.3411 54.2598 10.4512C 54.3571 10.5612 54.5433 10.6162 54.8184 10.6162C 55.0215 10.6162 55.2013 10.6014 55.3579 10.5718L 55.3579 11.9619C 54.9982 12.0719 54.6279 12.127 54.2471 12.127C 52.9606 12.127 52.3047 11.4774 52.2793 10.1782L 52.2793 6.47754L 51.2764 6.47754L 51.2764 5.13184L 52.2793 5.13184L 52.2793 3.44336L 54.1138 3.44336ZM 58.1001 5.88086C 58.5868 5.29688 59.1982 5.00488 59.9346 5.00488C 61.4242 5.00488 62.1795 5.87028 62.2007 7.60107L 62.2007 12L 60.3662 12L 60.3662 7.65186C 60.3662 7.2583 60.2816 6.96842 60.1123 6.78223C 59.943 6.5918 59.6616 6.49658 59.2681 6.49658C 58.7306 6.49658 58.3413 6.70394 58.1001 7.11865L 58.1001 12L 56.2656 12L 56.2656 2.25L 58.1001 2.25L 58.1001 5.88086ZM 69.2656 8.22314L 65.6094 8.22314L 65.6094 12L 63.7051 12L 63.7051 2.75781L 69.7227 2.75781L 69.7227 4.30029L 65.6094 4.30029L 65.6094 6.68701L 69.2656 6.68701L 69.2656 8.22314ZM 72.6426 12L 70.8018 12L 70.8018 5.13184L 72.6426 5.13184L 72.6426 12ZM 70.6938 3.35449C 70.6938 3.07943 70.7848 2.85303 70.9668 2.67529C 71.153 2.49756 71.4048 2.40869 71.7222 2.40869C 72.0353 2.40869 72.285 2.49756 72.4712 2.67529C 72.6574 2.85303 72.7505 3.07943 72.7505 3.35449C 72.7505 3.63379 72.6553 3.8623 72.4648 4.04004C 72.2786 4.21777 72.0311 4.30664 71.7222 4.30664C 71.4132 4.30664 71.1636 4.21777 70.9731 4.04004C 70.7869 3.8623 70.6938 3.63379 70.6938 3.35449ZM 73.874 8.51514C 73.874 7.4445 74.1131 6.5918 74.5913 5.95703C 75.0737 5.32227 75.7318 5.00488 76.5654 5.00488C 77.234 5.00488 77.7863 5.25456 78.2222 5.75391L 78.2222 2.25L 80.063 2.25L 80.063 12L 78.4062 12L 78.3174 11.27C 77.8604 11.8413 77.2721 12.127 76.5527 12.127C 75.7445 12.127 75.0949 11.8096 74.604 11.1748C 74.1174 10.5358 73.874 9.64925 73.874 8.51514ZM 75.7085 8.64844C 75.7085 9.29167 75.8206 9.78467 76.0449 10.1274C 76.2692 10.4702 76.5951 10.6416 77.0225 10.6416C 77.5895 10.6416 77.9894 10.4025 78.2222 9.92432L 78.2222 7.21387C 77.9937 6.73568 77.598 6.49658 77.0352 6.49658C 76.1507 6.49658 75.7085 7.21387 75.7085 8.64844ZM 81.1992 8.51514C 81.1992 7.4445 81.4383 6.5918 81.9165 5.95703C 82.3989 5.32227 83.057 5.00488 83.8906 5.00488C 84.5592 5.00488 85.1115 5.25456 85.5474 5.75391L 85.5474 2.25L 87.3882 2.25L 87.3882 12L 85.7314 12L 85.6426 11.27C 85.1855 11.8413 84.5973 12.127 83.8779 12.127C 83.0697 12.127 82.4201 11.8096 81.9292 11.1748C 81.4425 10.5358 81.1992 9.64925 81.1992 8.51514ZM 83.0337 8.64844C 83.0337 9.29167 83.1458 9.78467 83.3701 10.1274C 83.5944 10.4702 83.9202 10.6416 84.3477 10.6416C 84.9147 10.6416 85.3146 10.4025 85.5474 9.92432L 85.5474 7.21387C 85.3188 6.73568 84.9232 6.49658 84.3604 6.49658C 83.4759 6.49658 83.0337 7.21387 83.0337 8.64844ZM 90.7461 12L 88.9053 12L 88.9053 2.25L 90.7461 2.25L 90.7461 12ZM 95.4243 12.127C 94.4172 12.127 93.5962 11.818 92.9614 11.2002C 92.3309 10.5824 92.0156 9.75928 92.0156 8.73096L 92.0156 8.55322C 92.0156 7.86344 92.1489 7.24772 92.4155 6.70605C 92.6821 6.16016 93.0588 5.74121 93.5454 5.44922C 94.0363 5.15299 94.5949 5.00488 95.2212 5.00488C 96.1606 5.00488 96.8991 5.30111 97.4365 5.89355C 97.9782 6.486 98.249 7.32601 98.249 8.41357L 98.249 9.1626L 93.8755 9.1626C 93.9347 9.61117 94.1125 9.97087 94.4087 10.2417C 94.7091 10.5125 95.0879 10.6479 95.5449 10.6479C 96.2516 10.6479 96.8039 10.3919 97.2017 9.87988L 98.103 10.8892C 97.828 11.2785 97.4556 11.5832 96.9858 11.8032C 96.5161 12.019 95.9956 12.127 95.4243 12.127ZM 95.2148 6.49023C 94.8509 6.49023 94.5547 6.61296 94.3262 6.8584C 94.1019 7.10384 93.958 7.45508 93.8945 7.91211L 96.4463 7.91211L 96.4463 7.76611C 96.4378 7.35986 96.3278 7.04671 96.1162 6.82666C 95.9046 6.60238 95.6042 6.49023 95.2148 6.49023Z"/>
</defs>
</svg>
